<svg xmlns="http://www.w3.org/2000/svg" xmlns:xlink="http://www.w3.org/1999/xlink" width="64" height="64" class="icon" p-id="2034" t="1618205429990" version="1.1" viewBox="0 0 1024 1024"><defs><style type="text/css"/></defs><path fill="#fff" d="M529.066667 524.8l241.066666-241.066667c8.533333-8.533333 8.533333-21.333333 0-29.866666s-21.333333-8.533333-29.866666 0L499.2 494.933333 258.133333 253.866667c-8.533333-8.533333-21.333333-8.533333-29.866666 0s-8.533333 21.333333 0 29.866666L469.333333 524.8 228.266667 765.866667c-8.533333 8.533333-8.533333 21.333333 0 29.866666 4.266667 4.266667 10.666667 6.4 14.933333 6.4s10.666667-2.133333 14.933333-6.4L499.2 554.666667l241.066667 241.066666c4.266667 4.266667 10.666667 6.4 14.933333 6.4s10.666667-2.133333 14.933333-6.4c8.533333-8.533333 8.533333-21.333333 0-29.866666L529.066667 524.8z" p-id="2035"/></svg>